<svg width="113" height="26" viewBox="0 0 113 26" fill="none" xmlns="http://www.w3.org/2000/svg">
<path d="M102.068 5.82399C102.408 5.82251 102.748 5.82104 103.087 5.82428C104.001 5.83255 104.077 5.93957 103.744 6.75686C103.197 8.10156 102.651 9.44641 102.1 10.7895C100.861 13.8114 99.619 16.8321 98.3786 19.8534C98.0923 20.551 97.7655 21.2274 97.3321 21.8488C96.4538 23.108 95.2824 23.7817 93.6998 23.7643C92.7953 23.7544 91.9384 23.6103 91.105 23.2813C90.575 23.072 90.3363 22.9349 90.6637 22.3077C90.7953 22.0556 90.8797 21.7797 90.999 21.5207C91.3162 20.8318 91.3493 20.8275 92.0516 21.0789C92.3693 21.1924 92.6954 21.3046 93.0271 21.3524C94.0614 21.5016 94.8503 21.1403 95.406 20.2307C95.7702 19.6345 95.878 19.1245 95.5493 18.4301C93.7743 14.6797 92.0599 10.9009 90.3259 7.13149C90.2176 6.89606 90.107 6.66062 90.0179 6.41781C89.8861 6.0578 89.9908 5.87078 90.3719 5.83683C90.7088 5.80687 91.0504 5.83063 91.3903 5.83063C92.9356 5.83521 92.6048 5.67564 93.1966 7.00794C94.3824 9.67638 95.5458 12.3544 96.7263 15.0252L96.9718 15.5238C96.9718 15.5238 97.0492 15.684 97.146 15.684C97.2428 15.684 97.3847 15.7002 97.4945 15.5046C97.5372 15.4288 97.5848 15.3164 97.6272 15.2074C97.6381 15.1634 97.6498 15.1213 97.6647 15.0837C98.7857 12.2388 99.8838 9.38515 100.994 6.53619C101.272 5.82399 101.282 5.82738 102.068 5.82399ZM83.0056 11.1074C83.9401 11.4317 84.9096 11.6481 85.8254 12.0306C86.5543 12.3349 87.233 12.7073 87.7897 13.2761C89.1375 14.6531 88.891 17.226 87.4522 18.5447C86.5562 19.3659 85.482 19.7796 84.2694 19.8587C82.3066 19.9866 80.492 19.5223 78.8173 18.5114C77.6385 17.7996 77.6164 17.73 78.4091 16.6626C78.9461 15.9395 78.8766 15.6149 79.9851 16.3652C81.2474 17.2194 82.6583 17.6319 84.2073 17.4994C84.7743 17.4508 85.2806 17.282 85.6776 16.866C86.3322 16.1799 86.2416 15.273 85.4681 14.7214C84.9285 14.3365 84.2923 14.1694 83.6746 13.9685C83.1057 13.7835 82.5234 13.6398 81.951 13.4649C81.3505 13.2815 80.7819 13.0225 80.2332 12.7187C77.9055 11.4298 78.0312 8.61214 79.4309 7.12072C80.2891 6.20629 81.3651 5.74059 82.6138 5.65926C82.8738 5.64229 83.1357 5.65675 83.3968 5.65675C85.0115 5.59845 86.4765 6.10031 87.8618 6.87126C88.4336 7.18965 88.4666 7.35305 88.1376 7.92635C87.9569 8.24135 87.7579 8.54586 87.57 8.85687C87.3888 9.15651 87.1369 9.20758 86.8334 9.0644C86.6683 8.98661 86.5079 8.89908 86.3488 8.80978C85.4493 8.30438 84.4738 8.01757 83.454 7.93491C82.8586 7.88665 82.2555 8.00193 81.7283 8.3274C80.832 8.88034 80.8066 9.8786 81.6632 10.4864C82.0725 10.7769 82.5366 10.9448 83.0056 11.1074ZM70.7123 11.4633C70.3525 11.8406 70.3481 11.871 70.6827 12.3101C72.2892 14.4184 73.9026 16.5216 75.5091 18.6299C75.6893 18.8661 76.0287 19.0742 75.8634 19.4245C75.7022 19.7669 75.3323 19.6869 75.0241 19.6897C74.6061 19.6934 74.1865 19.668 73.7706 19.6965C73.3067 19.7284 72.989 19.5619 72.7073 19.1902C71.5931 17.7198 70.4555 16.2667 69.3222 14.8106C68.4073 13.6352 68.5443 13.7027 67.8284 14.3599C67.3503 14.8316 66.7496 15.445 66.5266 15.7599C66.4351 15.9244 66.3597 16.0948 66.3026 16.272C66.1771 16.7599 66.22 17.27 66.22 17.27V17.9218C66.2453 18.1976 66.2336 18.4792 66.22 18.7597C66.2157 18.846 66.2114 18.9322 66.208 19.0181C66.1878 19.5128 66.0389 19.6664 65.5486 19.6855C65.0792 19.7038 64.6078 19.7043 64.1384 19.685C63.6126 19.6632 63.5262 19.5716 63.5222 19.0128C63.5123 17.6908 63.5184 16.3687 63.5184 15.0468C63.5183 13.3618 63.5183 11.6769 63.5183 9.99196C63.5183 7.16662 63.5183 4.34113 63.5184 1.51564C63.5186 1.30825 63.5251 1.10086 63.521 0.893624C63.5144 0.570956 63.6919 0.404455 63.9938 0.394861C64.5418 0.377296 65.0914 0.368292 65.6389 0.391761C66.0271 0.408441 66.1735 0.584536 66.2077 0.988388C66.223 1.16876 66.2122 1.35106 66.2122 1.53261C66.2122 4.8765 66.208 8.22039 66.22 11.5643V12.2012C66.251 12.2526 66.3004 12.2945 66.3788 12.3208C66.6194 12.4015 66.7942 12.0593 66.9687 11.8788C68.7763 10.0094 70.5826 8.13861 72.3745 6.25426C72.6662 5.94754 72.9646 5.79137 73.3968 5.81587C73.9697 5.84834 74.5457 5.82665 75.1205 5.82443C75.365 5.8234 75.6057 5.84259 75.7171 6.09869C75.8276 6.35257 75.5972 6.47361 75.4614 6.61251C74.4608 7.63513 73.4508 8.64874 72.4482 9.6693C71.865 10.263 71.2866 10.8612 70.7123 11.4633ZM46.4394 12.7385C46.4473 8.89716 49.3149 5.55033 53.6995 5.54722C58.2719 5.54398 61.0571 9.23799 60.8964 12.7645C60.9946 16.1661 58.438 19.9423 53.6518 19.9564C49.265 19.9693 46.4316 16.6434 46.4394 12.7385ZM58.207 12.818C58.3309 10.5399 56.4199 7.76827 53.333 8.01034C51.7674 8.13315 50.6076 8.85052 49.8345 10.1616C49.1358 11.3467 48.9548 12.6347 49.3015 13.9822C50.0888 17.0415 53.2874 18.3341 55.805 16.9801C57.4508 16.0948 58.1362 14.6183 58.207 12.818ZM29.6298 12.75C29.6325 9.15179 32.3563 5.54132 36.881 5.54471C41.3797 5.54796 44.1647 9.06809 44.1075 12.7525C44.1273 16.5354 41.3104 19.9849 36.7809 19.9559C32.2896 19.9271 29.627 16.4012 29.6298 12.75ZM40.2024 16.0396C41.6412 14.4016 41.8212 11.9402 40.6461 10.1047C39.7715 8.73834 38.531 7.99366 36.6368 8.00813C35.7104 7.95632 34.7305 8.34954 33.8718 9.11311C31.9895 10.7871 31.7914 13.9697 33.5074 15.9469C35.4235 18.1546 38.5679 17.9006 40.2024 16.0396ZM17.1611 6.14489C18.2234 5.51977 19.4029 5.18736 20.5966 5.23651C23.1338 5.34117 25.135 6.48852 26.4601 8.68313C27.2464 9.98517 27.5199 11.4054 27.5 12.9211C27.4775 14.6234 26.9907 16.1383 25.8918 17.4361C24.5107 19.0673 22.7261 19.8549 20.5799 20.0348C17.4146 20.3004 14.8441 19.0119 12.4295 17.2172C11.2378 16.3314 10.0367 15.4601 8.78069 14.6648C8.22603 14.3136 7.63641 14.0469 7.00099 13.8792C5.57351 13.5025 4.20003 14.0464 3.42925 15.2947C3.36098 15.4051 3.28809 15.5147 3.23663 15.6329C3.08223 15.9876 2.81822 16.1281 2.4306 16.1159C1.85645 16.0977 1.28097 16.1234 0.706827 16.1078C0.0229114 16.089 -0.146208 15.8461 0.119742 15.2255C1.02067 13.1231 2.60879 11.7972 4.842 11.2862C6.91338 10.8122 8.82962 11.2292 10.5461 12.4819C11.5556 13.2185 12.5348 13.9967 13.5559 14.7166C14.9419 15.6933 16.3658 16.6381 18.0201 17.0941C19.7648 17.5748 21.481 17.5136 23.0275 16.4061C23.9367 15.755 24.5362 14.8959 24.7078 13.7917C24.9375 12.314 24.781 10.9033 23.8465 9.65335C22.0843 7.29666 18.6455 7.41091 17.0408 9.90399C16.5838 10.6138 16.2974 11.3835 16.3439 12.2499C16.3633 12.6117 16.3685 12.9781 16.3326 13.3376C16.2904 13.7601 16.0457 13.9202 15.6929 13.7372C15.0448 13.4014 14.4433 12.9853 13.8662 12.5392C13.5792 12.3175 13.6309 11.9847 13.6307 11.6754C13.6306 9.88687 13.6307 8.09802 13.6328 6.30947C13.6328 4.52077 13.6294 2.73207 13.6343 0.943368C13.6364 0.12415 13.6875 0.0811963 14.5383 0.0718971C14.7995 0.0690926 15.0607 0.0690926 15.3219 0.0718971C16.2123 0.0814915 16.3439 0.213895 16.3467 1.12788C16.3506 2.32039 16.3478 3.51276 16.3478 4.70528C16.3478 5.01628 16.3472 5.32744 16.3479 5.63845C16.35 6.60527 16.3577 6.61767 17.1611 6.14489Z" fill="black"/>
</svg>
